#!OML:ASF C:\Vicon Data\Big\jianyuan-13\jianyuan\Session 1\Capture.male.ASF
:FULLY-SPECIFIED
:DEGREES
70
root -8.658158 17.997073 -18.573079 0.467530 3.260870 0.419189
lowerback -5.598822 2.747928 0.857852 
upperback 2.298732 3.629506 -0.458034 
thorax 5.609686 1.833839 -0.577474 
lowerneck -4.044785 -4.286006 4.322633 
upperneck 3.371138 -5.789923 -4.489345 
head 1.488825 -2.932467 -2.304947 
rclavicle 0.000000 0.000000 
rhumerus -9.090796 1.213631 -84.910059 
rradius 50.545547 
rwrist 14.525987 
rhand -20.353465 -19.283879 
rfingers 0.000000 
rthumb 5.998569 -49.178951 
lclavicle 0.000000 0.000000 
lhumerus -55.870410 33.720038 52.648728 
lradius 22.784734 
lwrist -67.643391 
lhand -20.503532 4.162777 
lfingers 0.000000 
lthumb 5.853701 34.061926 
rfemur -15.533862 4.014194 24.554846 
rtibia 32.937382 
rfoot -14.751000 -6.219629 
rtoes -25.070942 
lfemur -49.526432 1.269851 -16.853691 
ltibia 47.314827 
lfoot -10.399832 5.607071 
ltoes -48.818684 
71
root -8.677820 18.018100 -18.483925 0.198257 2.995642 0.415732
lowerback -5.264919 2.965238 0.779645 
upperback 2.430965 3.929174 -0.462750 
thorax 5.559282 1.980491 -0.521273 
lowerneck -4.061306 -4.446790 4.322080 
upperneck 3.325098 -6.009584 -4.401739 
head 1.468621 -3.040511 -2.278723 
rclavicle 0.000000 0.000000 
rhumerus -8.433639 1.242408 -84.623423 
rradius 51.630152 
rwrist 14.274526 
rhand -20.437757 -19.394003 
rfingers 0.000000 
rthumb 5.917205 -49.291339 
lclavicle 0.000000 0.000000 
lhumerus -56.322544 33.258091 52.360460 
lradius 23.028507 
lwrist -65.848251 
lhand -19.962276 3.697514 
lfingers 0.000000 
lthumb 6.376224 33.581316 
rfemur -14.570153 4.194183 24.725723 
rtibia 32.346132 
rfoot -14.777371 -6.296533 
rtoes -25.111841 
lfemur -50.105844 1.160140 -16.734430 
ltibia 45.216674 
lfoot -10.096373 6.017024 
ltoes -49.465940 
72
root -8.686737 18.033058 -18.390894 -0.044218 2.842716 0.482283
lowerback -4.968944 3.141718 0.719981 
upperback 2.546784 4.173769 -0.497672 
thorax 5.515213 2.101150 -0.512625 
lowerneck -4.038596 -4.586956 4.317912 
upperneck 3.275826 -6.198377 -4.359958 
head 1.440916 -3.133848 -2.264843 
rclavicle 0.000000 0.000000 
rhumerus -7.866136 1.387527 -84.296909 
rradius 52.726017 
rwrist 13.787703 
rhand -20.719275 -19.476015 
rfingers 0.000000 
rthumb 5.645372 -49.380828 
lclavicle 0.000000 0.000000 
lhumerus -56.777033 33.070144 51.812054 
lradius 23.317574 
lwrist -62.058046 
lhand -18.657098 2.478579 
lfingers 0.000000 
lthumb 7.636098 32.320241 
rfemur -13.633234 4.211930 24.760816 
rtibia 31.737206 
rfoot -14.798100 -6.294032 
rtoes -25.063259 
lfemur -50.682212 1.052869 -16.818839 
ltibia 43.076552 
lfoot -9.579750 6.336428 
ltoes -49.087596 
73
root -8.693081 18.047947 -18.298324 -0.166038 2.737454 0.458440
lowerback -4.811153 3.291481 0.799150 
upperback 2.638562 4.371699 -0.532173 
thorax 5.534393 2.203403 -0.578751 
lowerneck -4.060304 -4.683764 4.249688 
upperneck 3.232722 -6.333800 -4.130855 
head 1.432899 -3.197725 -2.179669 
rclavicle 0.000000 0.000000 
rhumerus -7.252832 1.477941 -84.030668 
rradius 53.781459 
rwrist 13.269247 
rhand -20.724664 -19.562064 
rfingers 0.000000 
rthumb 5.640182 -49.466977 
lclavicle 0.000000 0.000000 
lhumerus -57.373251 32.917729 51.239747 
lradius 23.564390 
lwrist -60.386452 
lhand -18.082603 2.389636 
lfingers 0.000000 
lthumb 8.190623 32.210909 
rfemur -12.856132 4.287446 24.884205 
rtibia 31.166788 
rfoot -14.819141 -6.396587 
rtoes -25.213363 
lfemur -51.347724 0.801687 -16.729462 
ltibia 40.896132 
lfoot -9.144146 6.592429 
ltoes -48.003779 
74
root -8.707496 18.058880 -18.202767 -0.218219 2.509842 0.474001
lowerback -4.705991 3.478904 0.745912 
upperback 2.695234 4.629023 -0.569354 
thorax 5.538242 2.330003 -0.567045 
lowerneck -4.085982 -4.811554 4.097831 
upperneck 3.217905 -6.508079 -3.826282 
head 1.438069 -3.280330 -2.057331 
rclavicle 0.000000 0.000000 
rhumerus -6.637377 1.457066 -83.818960 
rradius 54.692455 
rwrist 12.751873 
rhand -20.893650 -19.494017 
rfingers 0.000000 
rthumb 5.477030 -49.403182 
lclavicle 0.000000 0.000000 
lhumerus -58.498421 33.071954 49.834092 
lradius 23.415569 
lwrist -63.302251 
lhand -19.324261 3.147629 
lfingers 0.000000 
lthumb 6.992124 33.011763 
rfemur -12.108678 4.403724 25.006765 
rtibia 30.524961 
rfoot -14.771496 -6.516831 
rtoes -25.689568 
lfemur -52.039267 0.943559 -16.817240 
ltibia 38.799611 
lfoot -8.656965 6.713461 
ltoes -47.820448 
75
root -8.722459 18.074560 -18.102616 -0.393805 2.105960 0.392918
lowerback -4.527103 3.719889 0.779079 
upperback 2.769447 4.950384 -0.566942 
thorax 5.523759 2.491000 -0.560898 
lowerneck -4.101613 -4.933377 4.184536 
upperneck 3.193173 -6.678607 -3.774042 
head 1.424483 -3.363501 -2.057913 
rclavicle 0.000000 0.000000 
rhumerus -6.088881 1.376766 -83.601947 
rradius 55.576660 
rwrist 12.459094 
rhand -20.843827 -19.601206 
rfingers 0.000000 
rthumb 5.525168 -49.509148 
lclavicle 0.000000 0.000000 
lhumerus -59.328022 33.065818 48.863042 
lradius 23.438906 
lwrist -63.345083 
lhand -19.625361 3.558493 
lfingers 0.000000 
lthumb 6.701475 33.432388 
rfemur -11.190111 4.567907 25.224373 
rtibia 29.855389 
rfoot -14.749895 -6.436587 
rtoes -25.603947 
lfemur -52.553555 1.344027 -16.860293 
ltibia 36.813012 
lfoot -8.050360 6.828617 
ltoes -47.920305 
76
root -8.729708 18.079339 -17.998753 -0.561404 1.915095 0.330964
lowerback -4.355722 3.857402 0.847505 
upperback 2.847372 5.132103 -0.582414 
thorax 5.519489 2.584651 -0.606235 
lowerneck -4.168454 -4.964370 4.055592 
upperneck 3.281331 -6.721198 -3.566572 
head 1.473032 -3.381876 -1.974183 
rclavicle 0.000000 0.000000 
rhumerus -5.526682 1.370137 -83.452109 
rradius 56.346894 
rwrist 12.176907 
rhand -20.788964 -19.436726 
rfingers 0.000000 
rthumb 5.578148 -49.343287 
lclavicle 0.000000 0.000000 
lhumerus -60.217784 33.212696 47.711418 
lradius 23.572241 
lwrist -62.038282 
lhand -19.059542 2.801901 
lfingers 0.000000 
lthumb 7.247657 32.657821 
rfemur -10.364498 4.377320 25.389870 
rtibia 29.281231 
rfoot -14.692272 -6.312842 
rtoes -26.275946 
lfemur -53.043000 1.372753 -16.888461 
ltibia 34.799415 
lfoot -7.562606 6.996674 
ltoes -47.576631 
77
root -8.737827 18.082342 -17.896154 -0.581756 1.770897 0.298874
lowerback -4.261865 3.982238 0.881331 
upperback 2.860108 5.299271 -0.617667 
thorax 5.489888 2.669775 -0.651797 
lowerneck -4.137340 -5.032222 3.936487 
upperneck 3.225653 -6.813677 -3.320605 
head 1.457213 -3.424203 -1.873233 
rclavicle 0.000000 0.000000 
rhumerus -4.997606 1.340810 -83.295369 
rradius 57.077247 
rwrist 11.920623 
rhand -20.678004 -19.536751 
rfingers 0.000000 
rthumb 5.685222 -49.440483 
lclavicle 0.000000 0.000000 
lhumerus -61.170807 33.263361 46.550709 
lradius 23.602776 
lwrist -62.445854 
lhand -19.059735 2.844148 
lfingers 0.000000 
lthumb 7.247527 32.700049 
rfemur -9.696455 4.494721 25.531772 
rtibia 28.797764 
rfoot -14.814996 -6.406730 
rtoes -26.245364 
lfemur -53.668841 1.639659 -17.162386 
ltibia 32.801100 
lfoot -6.667088 6.959408 
ltoes -48.200577 
78
root -8.747475 18.086643 -17.787868 -0.668102 1.521227 0.193614
lowerback -4.156516 4.113813 0.967141 
upperback 2.883718 5.471708 -0.640747 
thorax 5.469524 2.759294 -0.713574 
lowerneck -4.249251 -5.084287 4.053464 
upperneck 3.351702 -6.893458 -3.295254 
head 1.511454 -3.461939 -1.894367 
rclavicle 0.000000 0.000000 
rhumerus -4.480856 1.384631 -83.261059 
rradius 57.772458 
rwrist 11.437310 
rhand -20.661462 -19.529489 
rfingers 0.000000 
rthumb 5.701190 -49.432822 
lclavicle 0.000000 0.000000 
lhumerus -62.044586 33.250521 45.478583 
lradius 23.619186 
lwrist -62.091476 
lhand -19.132839 3.056748 
lfingers 0.000000 
lthumb 7.176911 32.915048 
rfemur -8.946790 4.654341 25.755871 
rtibia 28.354150 
rfoot -14.986875 -6.418747 
rtoes -26.200888 
lfemur -54.175091 2.065580 -17.413706 
ltibia 30.885888 
lfoot -5.807787 6.770550 
ltoes -48.628677 
79
root -8.755697 18.088246 -17.674535 -0.766399 1.265853 0.175588
lowerback -4.053399 4.226205 0.972087 
upperback 2.905404 5.624228 -0.673129 
thorax 5.441457 2.836143 -0.742574 
lowerneck -4.193737 -5.135486 4.037542 
upperneck 3.263336 -6.959484 -3.305361 
head 1.470734 -3.495548 -1.891184 
rclavicle 0.000000 0.000000 
rhumerus -4.091191 1.560617 -83.222849 
rradius 58.463006 
rwrist 11.055070 
rhand -20.691008 -19.700108 
rfingers 0.000000 
rthumb 5.672687 -49.604140 
lclavicle 0.000000 0.000000 
lhumerus -63.095050 33.351633 44.263281 
lradius 23.688541 
lwrist -61.998091 
lhand -19.041329 3.055935 
lfingers 0.000000 
lthumb 7.265242 32.911177 
rfemur -8.187857 4.667985 25.863796 
rtibia 27.948326 
rfoot -15.144122 -6.295219 
rtoes -26.291452 
lfemur -54.587895 2.482896 -17.817724 
ltibia 29.074968 
lfoot -5.052011 6.651066 
ltoes -48.235184 
80
root -8.761295 18.084428 -17.561485 -0.804610 1.091218 0.052576
lowerback -3.993912 4.313292 1.135013 
upperback 2.911627 5.732858 -0.710865 
thorax 5.437581 2.897055 -0.865206 
lowerneck -4.234471 -5.162732 4.107776 
upperneck 3.268703 -7.003584 -3.247552 
head 1.477522 -3.515618 -1.887145 
rclavicle 0.000000 0.000000 
rhumerus -3.607881 1.515348 -83.264239 
rradius 58.954509 
rwrist 11.069648 
rhand -20.538046 -19.603351 
rfingers 0.000000 
rthumb 5.820327 -49.503379 
lclavicle 0.000000 0.000000 
lhumerus -63.975210 33.360088 43.113029 
lradius 23.674046 
lwrist -62.009245 
lhand -18.897189 2.987373 
lfingers 0.000000 
lthumb 7.404424 32.837774 
rfemur -7.543048 4.651650 26.080283 
rtibia 27.597797 
rfoot -15.312078 -6.215468 
rtoes -26.389246 
lfemur -55.071132 2.756624 -18.071030 
ltibia 27.428040 
lfoot -4.303159 6.492872 
ltoes -49.650215 
81
root -8.766314 18.081828 -17.444267 -0.915272 0.863758 -0.042843
lowerback -3.885917 4.420582 1.235499 
upperback 2.949326 5.871926 -0.721937 
thorax 5.431589 2.970509 -0.925890 
lowerneck -3.958755 -5.093876 3.708063 
upperneck 2.864098 -6.907821 -2.547153 
head 1.338385 -3.458917 -1.572432 
rclavicle 0.000000 0.000000 
rhumerus -3.204967 1.558228 -83.251301 
rradius 59.486414 
rwrist 10.828954 
rhand -20.487506 -19.506380 
rfingers 0.000000 
rthumb 5.869156 -49.405096 
lclavicle 0.000000 0.000000 
lhumerus -64.717534 33.264946 42.289563 
lradius 23.609465 
lwrist -61.968710 
lhand -19.099008 3.291378 
lfingers 0.000000 
lthumb 7.209591 33.148550 
rfemur -6.772345 4.656265 26.263542 
rtibia 27.189249 
rfoot -15.417006 -6.123208 
rtoes -26.449251 
lfemur -55.429924 3.011711 -18.247171 
ltibia 25.974695 
lfoot -3.836912 6.284456 
ltoes -50.050600 
82
root -8.773497 18.075878 -17.319889 -1.002631 0.645024 -0.197388
lowerback -3.890318 4.501971 1.383671 
upperback 3.011177 5.972495 -0.727904 
thorax 5.518742 3.026491 -1.000289 
lowerneck -4.090986 -5.149478 3.762084 
upperneck 2.931716 -6.989670 -2.533534 
head 1.379053 -3.498988 -1.585346 
rclavicle 0.000000 0.000000 
rhumerus -2.844399 1.722494 -83.256217 
rradius 59.997002 
rwrist 10.912785 
rhand -20.464329 -19.495648 
rfingers 0.000000 
rthumb 5.891563 -49.393758 
lclavicle 0.000000 0.000000 
lhumerus -65.746054 33.563476 40.808170 
lradius 23.524983 
lwrist -62.592273 
lhand -18.949209 3.056026 
lfingers 0.000000 
lthumb 7.354184 32.908174 
rfemur -5.996654 4.892785 26.557687 
rtibia 26.806502 
rfoot -15.626857 -6.263691 
rtoes -26.678690 
lfemur -55.745422 3.138146 -18.252101 
ltibia 24.730060 
lfoot -3.609145 6.212769 
ltoes -49.701122 
